<svg version="1.2" xmlns="http://www.w3.org/2000/svg" viewBox="0 0 52 52" width="52" height="52">
	<style>
		tspan { white-space:pre } 
		.s0 { fill: #ffffff } 
	</style>
	<g id="ikony">
		<filter id="f0">
			<feFlood flood-color="#ffffff" flood-opacity="1" />
			<feBlend mode="normal" in2="SourceGraphic"/>
			<feComposite in2="SourceAlpha" operator="in" />
		</filter>
		<g id="ikony1" filter="url(#f0)">
			<g id="Layer 1">
				<path id="&lt;Compound Path&gt;" class="s0" d="m26.08 0.56c-14.02 0-25.42 11.39-25.42 25.41 0 14.01 11.4 25.43 25.42 25.43 14.02 0 25.42-11.42 25.42-25.43 0-14.02-11.4-25.41-25.42-25.41zm0 3.65c0.62 0 1.33 0.31 2.2 1.26 0.86 0.95 1.75 2.49 2.52 4.48 1.38 3.6 2.34 8.62 2.51 14.22h-14.46c0.17-5.6 1.12-10.62 2.51-14.22 0.76-1.99 1.66-3.53 2.52-4.48 0.87-0.95 1.58-1.26 2.2-1.26zm-6.46 0.97q-0.93 1.53-1.67 3.45c-1.59 4.15-2.57 9.55-2.73 15.54h-10.86c0.73-9 6.92-16.42 15.26-18.99zm12.91 0c8.35 2.57 14.53 9.99 15.27 18.99h-10.87c-0.16-5.99-1.13-11.39-2.73-15.54q-0.74-1.92-1.67-3.45zm-28.17 22.61h10.86c0.17 5.98 1.14 11.38 2.73 15.52q0.74 1.93 1.68 3.49c-8.34-2.57-14.52-10.01-15.27-19.01zm14.49 0h14.46c-0.18 5.6-1.13 10.64-2.51 14.23-0.77 2-1.66 3.53-2.52 4.48-0.87 0.95-1.58 1.25-2.2 1.25-0.62 0-1.33-0.3-2.2-1.25-0.86-0.95-1.76-2.48-2.52-4.48-1.39-3.59-2.34-8.63-2.51-14.23zm18.08 0h10.87c-0.74 9-6.93 16.44-15.27 19.01q0.93-1.56 1.67-3.49c1.59-4.14 2.57-9.54 2.73-15.52zm0 0"/>
			</g>
		</g>
	</g>
</svg>